# xmcd
#
# Track frame offsets: 
#        150
#        12510
#        27127
#        37422
#        51500
#        67665
#        81615
#        96557
#        110912
#        122962
#        134702
#        148752
#        160562
#        172909
#        189160
#        203112
#        217050
#        228555
#        242832
#        255595
#        268387
#        282747
#
# Disc length: 4041 seconds
#
# Revision: 0
# Processed by: cddbd v1.5.2PL0 Copyright (c) Steve Scherf et al.
# Submitted via: ExactAudioCopy v1.0b1
#
DISCID=630fc716
DTITLE=Various Artist - Vassilis Tsitsanis - The Faboulous American Recording
DTITLE=s
DYEAR=1998
DGENRE=Ethnic
TTITLE0=Orchestra - Beautiful Nights In The Orient
TTITLE1=Marika Ninou, Stelios Kiromitis - Tonight In The Wine-Shop
TTITLE2=Nikos Kallergis, Vayas, Betty - Cloudy Sunday
TTITLE3=Jim Apostolou - Look At Her, What A Body!
TTITLE4=Youla Panagiotou - Princess Of My Heart
TTITLE5=Antonis Moustakas - A Stroll At Baxe-Tsifliki
TTITLE6=Betty Daskalaki - Ghioul-Bahar
TTITLE7=Jim Apostolou - Nick The Fisherman
TTITLE8=Betty Daskalaki, K. Griparis - For Your Eyes Only
TTITLE9=Chrisoula Farah, Vayas - I'm A Tough Woman
TTITLE10=Yannis Voulgaris - Even In Hell
TTITLE11=Kaiti Gioulaki - Doctor-Doctor
TTITLE12=K. Griparis, Betty - Ungreatful Woman
TTITLE13=Eva Stylianopoulou, Manolis Chiotis - I'm Just Your Teddy-Bea
TTITLE13=r
TTITLE14=Betty Daskalaki, K. Griparis - We Separated At Dusk
TTITLE15=Jim Apostolou, Sevas Hanoum - A Cockerel Among Hens
TTITLE16=Betty Daskalaki - It's All For You
TTITLE17=Nikos Kallergis, Vayas, T. Montez - I Walk Towards Your House
TTITLE18=Betty Daskalaki - Farinda
TTITLE19=Sotiris Calymnakis - Today My Heart Is Mourning
TTITLE20=Iordanis Tsomidis, Betty - On A Saturday Afternoon
TTITLE21=Vassilis Tsitsanis - She Carried Me Away...
EXTD=
EXTT0=
EXTT1=
EXTT2=
EXTT3=
EXTT4=
EXTT5=
EXTT6=
EXTT7=
EXTT8=
EXTT9=
EXTT10=
EXTT11=
EXTT12=
EXTT13=
EXTT14=
EXTT15=
EXTT16=
EXTT17=
EXTT18=
EXTT19=
EXTT20=
EXTT21=
PLAYORDER=
